<?xml version="1.0" standalone="no"?><!DOCTYPE svg PUBLIC "-//W3C//DTD SVG 1.1//EN" "http://www.w3.org/Graphics/SVG/1.1/DTD/svg11.dtd"><svg t="1540315602165" class="icon" style="" viewBox="0 0 1024 1024" version="1.1" xmlns="http://www.w3.org/2000/svg" p-id="1951" xmlns:xlink="http://www.w3.org/1999/xlink" width="200" height="200"><defs><style type="text/css"></style></defs><path d="M547.84 512 1016.32 43.52c10.24-10.24 10.24-25.6 0-35.84-10.24-10.24-25.6-10.24-35.84 0L512 476.16 43.52 7.68c-10.24-10.24-25.6-10.24-35.84 0s-10.24 25.6 0 35.84L476.16 512 7.68 980.48c-10.24 10.24-10.24 25.6 0 35.84C12.8 1021.44 17.92 1024 25.6 1024s12.8-2.56 17.92-7.68L512 547.84l468.48 468.48c5.12 5.12 12.8 7.68 17.92 7.68s12.8-2.56 17.92-7.68c10.24-10.24 10.24-25.6 0-35.84L547.84 512z" p-id="1952" fill="#646466"></path></svg>